<svg height="512pt" viewBox="0 -57 512 512" width="512pt" xmlns="http://www.w3.org/2000/svg"><path d="m36.132812 340.484375h-21.421874c-8.125 0-14.710938-6.585937-14.710938-14.707031 0-8.125 6.585938-14.710938 14.710938-14.710938h21.421874c8.121094 0 14.707032 6.585938 14.707032 14.710938 0 8.121094-6.585938 14.707031-14.707032 14.707031zm0 0"/><path d="m179.710938 398.957031h-36.488282c-8.125 0-14.710937-6.585937-14.710937-14.710937s6.585937-14.710938 14.710937-14.710938h36.488282c8.121093 0 14.707031 6.585938 14.707031 14.710938s-6.585938 14.710937-14.707031 14.710937zm0 0"/><path d="m394.882812 324.65625c-7.648437 5.652344-16.722656 8.640625-26.230468 8.640625-9.511719 0-18.582032-2.988281-26.234375-8.640625l-117.117188-86.570312v72.980468h-128.417969c-8.125 0-14.710937 6.585938-14.710937 14.710938 0 8.121094 6.585937 14.707031 14.710937 14.707031h128.417969v43.769531c0 8.125 6.585938 14.710938 14.710938 14.710938h257.277343c8.125 0 14.710938-6.585938 14.710938-14.710938v-146.167968zm0 0"/><path d="m368.652344 303.878906c-3.074219 0-6.144532-.960937-8.746094-2.882812l-128.636719-95.085938c-5.109375-3.773437-7.214843-10.398437-5.230469-16.429687 1.988282-6.03125 7.621094-10.109375 13.972657-10.109375h257.277343c6.351563 0 11.984376 4.078125 13.972657 10.109375 1.984375 6.03125-.121094 12.65625-5.230469 16.429687l-128.636719 95.085938c-2.597656 1.921875-5.671875 2.882812-8.742187 2.882812zm0 0"/><path d="m496.476562 119.21875h-16.488281c-8.121093 0-14.707031-6.585938-14.707031-14.707031 0-8.125 6.585938-14.710938 14.707031-14.710938h16.488281c8.125 0 14.710938 6.585938 14.710938 14.710938 0 8.121093-6.585938 14.707031-14.710938 14.707031zm0 0"/><path d="m372.898438 60.75h-31.421876c-8.121093 0-14.707031-6.585938-14.707031-14.710938s6.585938-14.710937 14.707031-14.710937h31.421876c8.125 0 14.710937 6.585937 14.710937 14.710937s-6.585937 14.710938-14.710937 14.710938zm0 0"/><path d="m143.449219 124.503906c-3.074219 0-6.144531-.957031-8.746094-2.878906l-128.636719-95.085938c-5.109375-3.773437-7.214844-10.402343-5.226562-16.433593 1.984375-6.03125 7.621094-10.105469 13.96875-10.105469h257.277344c6.351562 0 11.984374 4.074219 13.972656 10.105469 1.988281 6.03125-.121094 12.660156-5.226563 16.433593l-128.640625 95.085938c-2.597656 1.921875-5.671875 2.878906-8.742187 2.878906zm0 0"/><path d="m195.300781 194.082031c0-24.652343 20.058594-44.710937 44.710938-44.710937h46.785156v-29.722656h133.898437c8.121094 0 14.707032-6.585938 14.707032-14.710938 0-8.121094-6.585938-14.707031-14.707032-14.707031h-133.898437v-31.515625l-117.121094 86.566406c-7.648437 5.65625-16.71875 8.644531-26.230469 8.644531-9.507812 0-18.582031-2.988281-26.230468-8.644531l-117.1171878-86.566406v146.164062c0 8.125 6.5859378 14.710938 14.7109378 14.710938h180.492187zm0 0"/></svg>