<svg height="512pt" viewBox="0 -12 512 512" width="512pt" xmlns="http://www.w3.org/2000/svg"><path d="m216.5 253.886719c0-4.136719-3.355469-7.492188-7.492188-7.492188h-105.9375c-4.136718 0-7.492187 3.355469-7.492187 7.492188s3.355469 7.492187 7.492187 7.492187h105.9375c4.136719 0 7.492188-3.355468 7.492188-7.492187zm0 0"/><path d="m235.453125 278.933594h-87.933594c-4.136719 0-7.488281 3.351562-7.488281 7.488281s3.351562 7.492187 7.488281 7.492187h87.933594c4.136719 0 7.492187-3.355468 7.492187-7.492187s-3.355468-7.488281-7.492187-7.488281zm0 0"/><path d="m235.453125 215.371094h-48.3125c-4.140625 0-7.492187 3.355468-7.492187 7.492187s3.355468 7.492188 7.492187 7.492188h48.3125c4.136719 0 7.492187-3.355469 7.492187-7.492188s-3.355468-7.492187-7.492187-7.492187zm0 0"/><path d="m36.199219 48.890625c0 11.300781 9.195312 20.492187 20.496093 20.492187 11.296876 0 20.492188-9.191406 20.492188-20.492187s-9.191406-20.496094-20.492188-20.496094c-11.300781 0-20.496093 9.195313-20.496093 20.496094zm26.003906 0c0 3.039063-2.472656 5.511719-5.507813 5.511719-3.039062 0-5.511718-2.472656-5.511718-5.511719s2.472656-5.511719 5.511718-5.511719c3.035157 0 5.507813 2.472656 5.507813 5.511719zm0 0"/><path d="m86.417969 48.890625c0 11.300781 9.191406 20.492187 20.492187 20.492187 11.300782 0 20.496094-9.191406 20.496094-20.492187s-9.195312-20.496094-20.496094-20.496094c-11.300781 0-20.492187 9.195313-20.492187 20.496094zm26.003906 0c0 3.039063-2.472656 5.511719-5.511719 5.511719-3.039062 0-5.511718-2.472656-5.511718-5.511719s2.472656-5.511719 5.511718-5.511719c3.039063 0 5.511719 2.472656 5.511719 5.511719zm0 0"/><path d="m136.632812 48.890625c0 11.300781 9.191407 20.492187 20.496094 20.492187 11.300782 0 20.492188-9.191406 20.492188-20.492187s-9.191406-20.496094-20.492188-20.496094c-11.304687 0-20.496094 9.195313-20.496094 20.496094zm26.003907 0c0 3.039063-2.472657 5.511719-5.507813 5.511719-3.039062 0-5.511718-2.472656-5.511718-5.511719s2.472656-5.511719 5.511718-5.511719c3.035156 0 5.507813 2.472656 5.507813 5.511719zm0 0"/><path d="m493.476562 118.492188c-.648437-.179688-1.324218-.289063-2.019531-.289063 0 0-1.3125.003906-3.726562.003906v-86.445312c0-17.511719-14.246094-31.761719-31.761719-31.761719h-111.132812c-4.140626 0-7.492188 3.355469-7.492188 7.492188 0 4.136718 3.355469 7.488281 7.492188 7.488281h111.132812c9.253906 0 16.78125 7.527343 16.78125 16.78125v51.03125h-457.765625v-51.03125c0-9.25 7.527344-16.777344 16.777344-16.777344h279.113281c4.136719 0 7.492188-3.355469 7.492188-7.492187 0-4.136719-3.355469-7.492188-7.492188-7.492188h-279.113281c-17.515625 0-31.761719 14.25-31.761719 31.761719v345.261719c0 17.511718 14.246094 31.761718 31.761719 31.761718h138.722656v24.878906h-21.1875c-14.570313 0-26.421875 11.851563-26.421875 26.421876v15.414062c0 6.753906 5.496094 12.25 12.25 12.25h217.949219c6.753906 0 12.25-5.496094 12.25-12.25v-15.414062c0-14.570313-11.851563-26.421876-26.421875-26.421876h-21.1875v-24.878906h138.488281c17.515625 0 31.761719-14.25 31.761719-31.761718l-.234375-64.726563h4.71875c1.167969 0 2.289062-.285156 3.300781-.78125 9.351562-2.5625 16.25-11.128906 16.25-21.285156v-149.957031c0-10.960938-8.035156-20.078126-18.523438-21.78125zm-20.003906 14.695312-77.027344 77.644531c-6.707031 6.15625-17.515624 6.15625-24.222656 0l-77.027344-77.644531zm-123.132812 326.894531v12.683594h-212.480469v-12.683594c0-6.304687 5.128906-11.4375 11.4375-11.4375h189.605469c6.308594 0 11.4375 5.132813 11.4375 11.4375zm-47.609375-26.417969h-117.261719v-24.878906h117.261719zm170.019531-56.640624c0 9.25-7.527344 16.777343-16.78125 16.777343h-423.972656c-9.253906 0-16.78125-7.527343-16.78125-16.777343v-26.710938h457.535156zm0-41.695313h-457.765625v-237.550781h457.765625v20.4375c-52.425781.03125-197.027344.128906-197.558594.277344-10.488281 1.703124-18.519531 10.820312-18.519531 21.78125v21.707031c0 4.136719 3.351563 7.492187 7.488281 7.492187 4.140625 0 7.492188-3.355468 7.492188-7.492187v-21.707031c0-2.578126 1.386718-4.828126 3.449218-6.070313l63.542969 64.054687c-.957031 1.199219-1.875 2.4375-2.734375 3.726563l-62.253906 93.175781c-1.238281-1.277344-2.003906-3.015625-2.003906-4.929687v-94.289063c0-4.136718-3.355469-7.492187-7.492188-7.492187-4.136718 0-7.488281 3.355469-7.488281 7.492187v94.289063c0 7.585937 4.03125 14.777343 10.480469 18.769531 7.042968 4.359375 15.25 3.300781 23.199218 3.296875h71.375 86.253907 24.769531zm-182.511719-38.011719 58.132813-87.011718c.296875-.445313.613281-.875.933594-1.304688l12.394531 12.496094c.070312.070312.140625.136718.210937.203125 6.289063 5.863281 14.355469 8.796875 22.425782 8.796875 8.070312 0 16.140624-2.933594 22.425781-8.796875.070312-.066407.140625-.132813.210937-.203125l12.40625-12.503906c.3125.433593.625.867187.921875 1.316406l58.132813 87.007812zm206.777344-7.085937c0 1.914062-.765625 3.652343-2.003906 4.929687l-62.253907-93.175781c-.859374-1.289063-1.777343-2.527344-2.734374-3.726563l63.542968-64.054687c2.0625 1.242187 3.449219 3.492187 3.449219 6.070313zm0 0"/></svg>